<?xml version="1.0" ?><!DOCTYPE svg  PUBLIC '-//W3C//DTD SVG 1.1//EN'  'http://www.w3.org/Graphics/SVG/1.1/DTD/svg11.dtd'><svg enable-background="new 0 0 128 128" id="Слой_1" version="1.1" viewBox="0 0 128 128" xml:space="preserve" xmlns="http://www.w3.org/2000/svg" xmlns:xlink="http://www.w3.org/1999/xlink"><g><g><g><path d="M23.5,16.5C10.3,27.9,2,44.7,2,63.5c0,34.2,27.8,62,62,62s62-27.8,62-62c0-18.9-8.5-35.9-21.9-47.3     L23.5,16.5z" fill="#B28F6F"/></g></g><g><g><path d="M108.4,52.6c0.3,8.6,1.2,26.8,1.3,28.9c0,0.1,0.1,0.2,0.2,0.2h4.4c0.1,0,0.2-0.1,0.2-0.2     c0.1-2.1,0.9-20.3,1.3-28.9H108.4z" fill="#4A4946"/></g></g><g opacity="0.1"><g><path d="M110.5,81.5c-0.1-2.1-0.6-20.3-1-28.9h-1.1c0.3,8.6,1.2,26.8,1.3,28.9c0,0.1,0.1,0.2,0.2,0.2h0.8     C110.6,81.7,110.5,81.6,110.5,81.5z" fill="#FDFDFD"/></g></g><g opacity="0.1"><path d="M114.8,52.6c-0.3,8.6-0.8,26.8-0.9,28.9c0,0.1-0.1,0.2-0.2,0.2h0.8c0,0,0,0,0,0c0.1,0,0.1-0.1,0.2-0.1    c0,0,0,0,0-0.1c0.1-1.2,0.3-7.5,0.6-14.2c0-0.4,0-0.8,0.1-1.1c0.1-1.5,0.1-3.1,0.2-4.5c0-0.7,0.1-1.5,0.1-2.2    c0-0.7,0.1-1.4,0.1-2.1c0.1-1.7,0.1-3.3,0.2-4.6H114.8z" fill="#07090A"/></g><g><g><path d="M112.3,49.6l4-0.3c0.2-6.2,0.2-12.5,0.1-18.9c-2.4-3.9-5.3-7.5-8.5-10.7c0,2.6-0.1,5.1-0.1,7.2     c-0.1,6.2,0,15.7,0.2,22.4L112.3,49.6z" fill="#4A4946"/></g></g><g opacity="0.1"><g><path d="M108.1,52.6h1.1c-0.1-6.4-0.3-18.4-0.2-25.6c0-1.8,0.1-3.9,0.1-6.1c-0.4-0.4-0.7-0.8-1.1-1.1     c0,2.6-0.1,5.1-0.1,7.2C107.7,34.2,107.9,46.2,108.1,52.6z" fill="#FDFDFD"/></g></g><g opacity="0.2"><g><path d="M115.2,52.6h1.1c0.2-7.4,0.3-14.6,0.2-22.1c-0.4-0.6-0.7-1.2-1.1-1.7C115.5,36.9,115.4,44.7,115.2,52.6z" fill="#07090A"/></g></g><g><g><path d="M113.9,81.7h-3.6l-0.5,4.4c0,0.4,0,0.8,0.2,1.1l1.9,4.4c0,0.1,0.1,0.1,0.1,0.1v-4.4     c-0.3,0-0.6-0.3-0.6-0.6c0-0.4,0.3-0.7,0.7-0.7s0.7,0.3,0.7,0.7c0,0.3-0.3,0.6-0.6,0.6v4.4c0,0,0.1-0.1,0.1-0.1l2-4.3     c0.2-0.4,0.2-0.8,0.2-1.2L113.9,81.7z" fill="#F5C93F"/></g></g><g opacity="0.15"><g><path d="M110.5,87.2c-0.2-0.4-0.2-0.8-0.2-1.1l0.5-4.4h-0.5l-0.5,4.4c0,0.4,0,0.8,0.2,1.1l1.9,4.4     C112,91.8,110.5,87.2,110.5,87.2z" fill="#FDFDFD"/></g></g><g opacity="0.1"><g><path d="M113.9,81.7h-0.5l0.5,4.5c0,0.4,0,0.8-0.2,1.2c0,0-1.5,4.5-1.4,4.3l2-4.3c0.2-0.4,0.2-0.8,0.2-1.2     L113.9,81.7z" fill="#07090A"/></g></g><g opacity="0.1"><g><polygon fill="#07090A" points="113.9,81.7 110.4,81.7 110.3,82.8 114,82.8    "/></g></g><g><g><path d="M108,49.3c0,1.2,0,2.3,0.1,3.3h8.2c0-1.1,0.1-2.2,0.1-3.3H108z" fill="#F5C93F"/></g></g><g opacity="0.15"><g><path d="M109.1,49.3H108c0,1.2,0,2.3,0.1,3.3h1.1C109.1,51.6,109.1,50.5,109.1,49.3z" fill="#FDFDFD"/></g></g><g opacity="0.1"><g><path d="M115.2,49.3c0,1.1,0,2.2-0.1,3.3h1.1c0-1.1,0.1-2.2,0.1-3.3H115.2z" fill="#07090A"/></g></g><g><g><path d="M104.1,94.4V16.2C93.3,7,79.3,1.5,64,1.5c-15.5,0-29.6,5.7-40.5,15.1v77.8H104.1z" fill="#FDFAFA"/></g></g><g><g><path d="M91.1,80.8c-7.6,0.3-8.8-0.7-9.7-1.4c-0.3-0.3-0.7-0.5-1.3-0.6c-1.1-0.2-1.5,0.7-1.8,1.3     c-0.3,0.7-0.5,0.9-1,0.9c-0.6,0-0.7-0.8-0.6-2.3c0-1,0.1-1.7-0.5-2c-0.5-0.3-1,0.1-1.2,0.3c-1.6,1.2-1.5,2.4-1.4,3.2     c0.1,0.6,0.1,0.7-0.5,0.8c-0.2,0-0.4,0-0.5-0.2c-0.7-1.2-0.1-5,1.8-7.6c1.1-1.6,1-2.6,0.6-3.2c-0.4-0.8-1.4-1.3-2.8-1.3     c0,0,0,0,0,0c-1.9,0-4.4,1-5.5,3c-1.5,2.9,0.8,5.8,2.2,7.6c0.4,0.4,0.8,1,0.8,1.1c-0.2,0.9-2.5,0.8-3.5,0.7     c-0.3,0-0.5,0.1-0.6,0.4s0.1,0.5,0.4,0.6c0.4,0.1,4.1,0.5,4.6-1.4c0.1-0.5-0.3-1-1-2c-1.3-1.7-3.3-4.2-2.1-6.5     c0.8-1.6,2.9-2.5,4.6-2.5c0,0,0,0,0,0c0.9,0,1.6,0.3,1.9,0.7c0.3,0.5,0,1.3-0.6,2.2c-2,2.9-2.8,7.1-1.8,8.7     c0.4,0.5,0.9,0.8,1.5,0.7c1.5-0.3,1.4-1.2,1.3-1.8c-0.1-0.7-0.2-1.4,1-2.3c0,0,0.1,0,0.1-0.1c0,0.3,0,0.7,0,1     c0,1.3-0.1,3.2,1.5,3.3c0.1,0,0.1,0,0.2,0c1,0,1.5-0.8,1.8-1.4c0.3-0.7,0.5-0.8,0.8-0.8c0.4,0.1,0.6,0.2,0.9,0.5     c1,0.7,2.4,1.9,10.3,1.6c0.3,0,0.5-0.2,0.5-0.5C91.6,81,91.4,80.8,91.1,80.8z" fill="#4A4946"/></g></g><g><g><rect fill="#4A4946" height="3.4" width="61.8" x="32.9" y="19.5"/></g></g><g><g><rect fill="#4A4946" height="3.4" width="43" x="32.9" y="26.2"/></g></g><g><g><rect fill="#4A4946" height="3.4" width="52.4" x="32.9" y="32.9"/></g></g><g><g><rect fill="#4A4946" height="3.4" width="47" x="32.9" y="39.6"/></g></g><g><g><polygon fill="#E9705B" points="35.4,101.1 41.6,95.7 47.9,101.1 47.9,84.3 35.4,84.3    "/></g></g><g><g><path d="M54.3,75.9c-0.8-0.5-1-1.5-0.5-2.3c0.7-0.9,0.2-2.3-1-2.5c-0.9-0.1-1.6-1-1.3-1.9     c0.3-1.1-0.7-2.2-1.9-1.9c-0.9,0.3-1.8-0.4-1.9-1.3c-0.1-1.2-1.5-1.8-2.5-1c-0.7,0.6-1.8,0.4-2.3-0.5c-0.6-1-2.1-1-2.7,0     c-0.5,0.8-1.5,1-2.3,0.5c-0.9-0.7-2.3-0.2-2.5,1c-0.1,0.9-1,1.6-1.9,1.3c-1.1-0.3-2.2,0.7-1.9,1.9c0.3,0.9-0.4,1.8-1.3,1.9     c-1.2,0.1-1.8,1.5-1,2.5c0.6,0.7,0.4,1.8-0.5,2.3c-1,0.6-1,2.1,0,2.7c0.8,0.5,1,1.5,0.5,2.3c-0.7,0.9-0.2,2.3,1,2.5     c0.9,0.1,1.6,1,1.3,1.9c-0.3,1.1,0.7,2.2,1.9,1.9c0.9-0.3,1.8,0.4,1.9,1.3c0.1,1.2,1.5,1.8,2.5,1c0.7-0.6,1.8-0.4,2.3,0.5     c0.6,1,2.1,1,2.7,0c0.5-0.8,1.5-1,2.3-0.5c0.9,0.7,2.3,0.2,2.5-1c0.1-0.9,1-1.6,1.9-1.3c1.1,0.3,2.2-0.7,1.9-1.9     c-0.3-0.9,0.4-1.8,1.3-1.9c1.2-0.1,1.8-1.5,1-2.5c-0.6-0.7-0.4-1.8,0.5-2.3C55.3,78,55.3,76.5,54.3,75.9z" fill="#4A4946"/></g></g><g enable-background="new    " opacity="0.1"><g><path d="M31.2,77.3c0,3,1.3,5.8,3.4,7.7c-1.7-1.9-2.8-4.3-2.8-7.1c0-5.8,4.7-10.4,10.4-10.4     c2.7,0,5.2,1.1,7.1,2.8c-1.9-2.1-4.6-3.4-7.7-3.4C35.9,66.8,31.2,71.5,31.2,77.3z" fill="#0D0F10"/></g></g><g enable-background="new    " opacity="0.1"><g><path d="M51.5,76.7c0,5.8-4.7,10.4-10.4,10.4c-2.7,0-5.2-1.1-7.1-2.8c1.9,2.1,4.6,3.4,7.7,3.4     c5.8,0,10.4-4.7,10.4-10.4c0-3-1.3-5.8-3.4-7.7C50.4,71.4,51.5,73.9,51.5,76.7z" fill="#FDFDFD"/></g></g></g></svg>